<svg 
 xmlns="http://www.w3.org/2000/svg"
 xmlns:xlink="http://www.w3.org/1999/xlink"
 width="131px" height="131px">
<defs>
<linearGradient id="PSgrad_0" x1="0%" x2="24.759%" y1="0%" y2="96.886%">
  <stop offset="1%" stop-color="rgb(109,255,198)" stop-opacity="1" />
  <stop offset="99%" stop-color="rgb(63,210,206)" stop-opacity="1" />
</linearGradient>

</defs>
<path fill-rule="evenodd"  fill="url(#PSgrad_0)"
 d="M38.766,83.211 L49.817,94.269 L85.098,58.993 L74.036,47.946 L38.766,83.211 ZM38.342,94.684 L47.328,94.697 L38.338,85.705 L38.342,94.684 ZM75.496,46.487 L86.554,57.532 L88.227,55.864 L77.175,44.813 L75.496,46.487 ZM65.721,0.626 C29.915,0.626 0.888,29.654 0.888,65.460 C0.888,101.267 29.915,130.293 65.721,130.293 C101.527,130.293 130.555,101.267 130.555,65.460 C130.555,29.654 101.527,0.626 65.721,0.626 ZM78.680,43.401 L89.633,54.359 C91.979,51.295 91.748,46.876 88.954,44.074 C86.244,41.382 81.660,41.104 78.680,43.401 Z"/>
</svg>