<svg 
 xmlns="http://www.w3.org/2000/svg"
 xmlns:xlink="http://www.w3.org/1999/xlink"
 width="130px" height="131px">
<defs>
<linearGradient id="PSgrad_0" x1="0%" x2="24.759%" y1="0%" y2="96.886%">
  <stop offset="1%" stop-color="rgb(109,255,198)" stop-opacity="1" />
  <stop offset="99%" stop-color="rgb(63,210,206)" stop-opacity="1" />
</linearGradient>

</defs>
<path fill-rule="evenodd"  fill="url(#PSgrad_0)"
 d="M64.393,58.834 C59.182,58.834 54.941,63.077 54.941,68.290 C54.941,73.504 59.182,77.750 64.393,77.750 C69.609,77.750 73.850,73.504 73.850,68.290 C73.850,63.077 69.609,58.834 64.393,58.834 ZM82.916,60.615 C82.769,60.266 82.822,59.863 83.057,59.561 L87.766,53.509 L79.174,44.910 L73.117,49.629 C72.814,49.858 72.415,49.916 72.064,49.772 C71.718,49.624 71.469,49.297 71.421,48.924 L70.467,41.312 L58.315,41.312 L57.363,48.924 C57.318,49.297 57.070,49.624 56.721,49.772 C56.373,49.920 55.971,49.860 55.668,49.629 L49.613,44.920 L41.018,53.509 L45.732,59.561 C45.965,59.863 46.018,60.266 45.874,60.615 C45.728,60.965 45.406,61.212 45.031,61.257 L37.416,62.215 L37.416,74.367 L45.027,75.316 C45.406,75.362 45.728,75.608 45.874,75.961 C46.018,76.310 45.965,76.711 45.732,77.012 L41.018,83.077 L49.613,91.663 L55.668,86.955 C55.967,86.723 56.367,86.661 56.721,86.814 C57.070,86.960 57.318,87.284 57.363,87.660 L58.315,95.271 L70.467,95.271 L71.421,87.660 C71.469,87.284 71.718,86.960 72.064,86.814 C72.420,86.670 72.820,86.726 73.117,86.955 L79.174,91.663 L87.766,83.070 L83.057,77.012 C82.822,76.711 82.769,76.310 82.916,75.961 C83.061,75.608 83.383,75.362 83.762,75.316 L91.371,74.367 L91.371,62.215 L83.756,61.257 C83.383,61.212 83.060,60.965 82.916,60.615 ZM64.889,0.626 C29.082,0.626 0.055,29.654 0.055,65.460 C0.055,101.267 29.082,130.293 64.889,130.293 C100.694,130.293 129.723,101.267 129.723,65.460 C129.723,29.654 100.694,0.626 64.889,0.626 Z"/>
</svg>