<svg 
 xmlns="http://www.w3.org/2000/svg"
 xmlns:xlink="http://www.w3.org/1999/xlink"
 width="131px" height="131px">
<defs>
<linearGradient id="PSgrad_0" x1="0%" x2="24.759%" y1="0%" y2="96.886%">
  <stop offset="1%" stop-color="rgb(109,255,198)" stop-opacity="1" />
  <stop offset="99%" stop-color="rgb(63,210,206)" stop-opacity="1" />
</linearGradient>

</defs>
<path fill-rule="evenodd"  fill="url(#PSgrad_0)"
 d="M75.849,52.600 L72.196,45.290 L57.544,45.290 L53.892,52.600 C53.685,53.009 53.270,53.266 52.812,53.266 L33.642,53.266 L33.642,91.297 L96.092,91.297 L96.092,53.266 L76.926,53.266 C76.473,53.266 76.055,53.009 75.849,52.600 ZM64.869,61.379 C58.857,61.379 53.969,66.276 53.969,72.287 C53.969,78.293 58.857,83.179 64.869,83.179 C70.879,83.179 75.774,78.293 75.774,72.287 C75.774,66.276 70.879,61.379 64.869,61.379 ZM65.389,0.626 C29.582,0.626 0.555,29.654 0.555,65.460 C0.555,101.267 29.582,130.293 65.389,130.293 C101.194,130.293 130.223,101.267 130.223,65.460 C130.223,29.654 101.194,0.626 65.389,0.626 Z"/>
</svg>