<svg 
 xmlns="http://www.w3.org/2000/svg"
 xmlns:xlink="http://www.w3.org/1999/xlink"
 width="131px" height="131px">
<defs>
<linearGradient id="PSgrad_0" x1="0%" x2="24.759%" y1="0%" y2="96.886%">
  <stop offset="1%" stop-color="rgb(109,255,198)" stop-opacity="1" />
  <stop offset="99%" stop-color="rgb(63,210,206)" stop-opacity="1" />
</linearGradient>

</defs>
<path fill-rule="evenodd"  fill="url(#PSgrad_0)"
 d="M61.095,89.778 L69.963,89.778 L70.226,88.584 L60.832,88.584 L61.095,89.778 ZM60.305,86.188 L70.750,86.188 L71.807,81.405 L59.257,81.405 L60.305,86.188 ZM65.525,43.215 C56.285,43.215 48.774,50.732 48.774,59.974 C48.774,65.224 51.211,70.090 55.481,73.313 C55.582,73.381 55.662,73.467 55.736,73.562 C56.532,74.209 58.455,76.026 58.879,79.001 L64.335,79.001 L64.335,62.250 C64.335,61.611 64.083,61.002 63.631,60.553 C63.176,60.100 62.583,59.851 61.953,59.851 L61.942,59.851 C61.277,59.851 60.736,59.319 60.736,58.657 C60.736,57.988 61.277,57.452 61.937,57.452 L61.953,57.452 C63.219,57.452 64.421,57.948 65.326,58.849 C65.411,58.941 65.451,59.061 65.531,59.158 C65.611,59.064 65.646,58.950 65.727,58.864 C66.631,57.953 67.833,57.452 69.121,57.452 C69.779,57.452 70.323,57.988 70.323,58.651 C70.323,59.310 69.779,59.851 69.121,59.851 C68.480,59.851 67.879,60.100 67.426,60.558 C66.979,61.005 66.733,61.611 66.740,62.241 L66.740,79.001 L72.178,79.001 C72.601,76.038 74.514,74.217 75.320,73.573 C75.389,73.473 75.470,73.381 75.573,73.307 C79.844,70.088 82.294,65.224 82.294,59.974 C82.294,50.732 74.771,43.215 65.525,43.215 ZM65.221,0.626 C29.415,0.626 0.388,29.654 0.388,65.460 C0.388,101.267 29.415,130.293 65.221,130.293 C101.027,130.293 130.055,101.267 130.055,65.460 C130.055,29.654 101.027,0.626 65.221,0.626 ZM61.879,93.365 L69.179,93.365 L69.430,92.177 L61.615,92.177 L61.879,93.365 Z"/>
</svg>